<svg xmlns="http://www.w3.org/2000/svg" viewBox="0 0 1200 900">
  <defs>
    <linearGradient id="sky" x1="0" x2="0" y1="0" y2="1">
      <stop offset="0" stop-color="#f0a36a" />
      <stop offset="1" stop-color="#9c4d2a" />
    </linearGradient>
    <linearGradient id="button" x1="0" x2="0" y1="0" y2="1">
      <stop offset="0" stop-color="#f6d992" />
      <stop offset="1" stop-color="#e6b25a" />
    </linearGradient>
    <radialGradient id="sun" cx="0.5" cy="0.5" r="0.5">
      <stop offset="0" stop-color="#ffd7a8" stop-opacity="0.95" />
      <stop offset="1" stop-color="#d47a3d" stop-opacity="0" />
    </radialGradient>
  </defs>
  <rect width="1200" height="900" fill="url(#sky)" />
  <circle cx="240" cy="220" r="140" fill="url(#sun)" />
  <circle cx="940" cy="200" r="110" fill="url(#sun)" />
  <g fill="#7c3b21" opacity="0.85">
    <path d="M0 500 Q 120 460 240 500 T 480 500 T 720 520 T 960 500 T 1200 520 V900 H0 Z" />
    <path d="M0 560 Q 160 520 320 560 T 640 560 T 960 580 T 1200 560 V900 H0 Z" fill="#a34f29" />
  </g>
  <g fill="#49271c" opacity="0.85">
    <path d="M400 600 L460 520 H740 L780 560 H820 L840 600 Z" />
    <rect x="470" y="470" width="220" height="60" rx="10" />
    <rect x="520" y="420" width="80" height="60" rx="12" />
  </g>
  <g fill="#22130f">
    <circle cx="470" cy="600" r="60" />
    <circle cx="730" cy="600" r="60" />
  </g>
  <g fill="#3b251d">
    <circle cx="470" cy="600" r="30" />
    <circle cx="730" cy="600" r="30" />
  </g>
  <g fill="#2c1c17">
    <rect x="240" y="340" width="120" height="60" rx="10" />
    <rect x="210" y="350" width="50" height="40" rx="6" />
    <rect x="360" y="350" width="50" height="40" rx="6" />
    <rect x="570" y="320" width="120" height="60" rx="10" />
    <rect x="540" y="330" width="50" height="40" rx="6" />
    <rect x="690" y="330" width="50" height="40" rx="6" />
    <rect x="840" y="320" width="120" height="60" rx="10" />
    <rect x="810" y="330" width="50" height="40" rx="6" />
    <rect x="960" y="330" width="50" height="40" rx="6" />
  </g>
  <g fill="#2f1f1a">
    <path d="M880 610 Q900 540 930 540 Q970 540 960 600 Q950 660 920 660 Q900 660 880 610 Z" />
    <circle cx="925" cy="520" r="30" />
  </g>
  <text x="50%" y="150" font-family="'Segoe UI', 'DejaVu Sans', sans-serif" font-size="110" font-weight="700" text-anchor="middle" fill="#f9dca8" letter-spacing="0.2em">WELCOME TO</text>
  <text x="50%" y="250" font-family="'Segoe UI', 'DejaVu Sans', sans-serif" font-size="140" font-weight="700" text-anchor="middle" fill="#f9dca8">MARS</text>
  <g transform="translate(300 700)">
    <rect width="600" height="140" rx="60" fill="url(#button)" stroke="#b5722f" stroke-width="8" />
    <text x="300" y="95" font-family="'Segoe UI', 'DejaVu Sans', sans-serif" font-size="100" font-weight="700" text-anchor="middle" fill="#7a3f19">START</text>
  </g>
</svg>
