{
  "asset": {
    "version": "2.0",
    "generator": "ChatGPT glTF builder"
  },
  "scene": 0,
  "scenes": [
    {
      "nodes": [
        0
      ]
    }
  ],
  "nodes": [
    {
      "name": "AstronautSuit",
      "children": [
        1,
        2,
        3,
        4,
        5,
        6,
        7,
        8,
        9,
        10,
        11
      ]
    },
    {
      "name": "Torso",
      "mesh": 0,
      "translation": [
        0,
        1.6,
        0
      ],
      "scale": [
        1.2,
        1.9,
        0.7
      ]
    },
    {
      "name": "Head",
      "mesh": 0,
      "translation": [
        0,
        3.2,
        0
      ],
      "scale": [
        0.9,
        0.95,
        0.9
      ]
    },
    {
      "name": "LeftLeg",
      "mesh": 0,
      "translation": [
        -0.35,
        0.8,
        0
      ],
      "scale": [
        0.5,
        1.6,
        0.55
      ]
    },
    {
      "name": "RightLeg",
      "mesh": 0,
      "translation": [
        0.35,
        0.8,
        0
      ],
      "scale": [
        0.5,
        1.6,
        0.55
      ]
    },
    {
      "name": "LeftArm",
      "mesh": 0,
      "translation": [
        -1.05,
        2.3,
        0
      ],
      "scale": [
        0.4,
        1.3,
        0.5
      ]
    },
    {
      "name": "RightArm",
      "mesh": 0,
      "translation": [
        1.05,
        2.3,
        0
      ],
      "scale": [
        0.4,
        1.3,
        0.5
      ]
    },
    {
      "name": "Backpack",
      "mesh": 2,
      "translation": [
        0,
        2.0,
        -0.55
      ],
      "scale": [
        0.9,
        1.2,
        0.4
      ]
    },
    {
      "name": "Visor",
      "mesh": 1,
      "translation": [
        0,
        3.25,
        0.45
      ],
      "scale": [
        0.7,
        0.5,
        0.15
      ]
    },
    {
      "name": "LeftBoot",
      "mesh": 2,
      "translation": [
        -0.35,
        0.15,
        0
      ],
      "scale": [
        0.6,
        0.5,
        0.65
      ]
    },
    {
      "name": "RightBoot",
      "mesh": 2,
      "translation": [
        0.35,
        0.15,
        0
      ],
      "scale": [
        0.6,
        0.5,
        0.65
      ]
    },
    {
      "name": "ShoulderHarness",
      "mesh": 2,
      "translation": [
        0,
        2.8,
        0
      ],
      "scale": [
        1.4,
        0.4,
        0.8
      ]
    }
  ],
  "materials": [
    {
      "name": "SuitPrimary",
      "pbrMetallicRoughness": {
        "baseColorFactor": [
          0.2,
          0.6,
          0.95,
          1.0
        ],
        "metallicFactor": 0.1,
        "roughnessFactor": 0.6
      },
      "emissiveFactor": [
        0.05,
        0.1,
        0.2
      ]
    },
    {
      "name": "VisorGlass",
      "alphaMode": "BLEND",
      "pbrMetallicRoughness": {
        "baseColorFactor": [
          0.4,
          0.8,
          1.0,
          0.4
        ],
        "metallicFactor": 0.0,
        "roughnessFactor": 0.1
      }
    },
    {
      "name": "SuitAccent",
      "pbrMetallicRoughness": {
        "baseColorFactor": [
          0.1,
          0.2,
          0.35,
          1.0
        ],
        "metallicFactor": 0.0,
        "roughnessFactor": 0.8
      }
    }
  ],
  "meshes": [
    {
      "name": "SuitSegment",
      "primitives": [
        {
          "attributes": {
            "POSITION": 0,
            "NORMAL": 1
          },
          "indices": 2,
          "material": 0
        }
      ]
    },
    {
      "name": "VisorSegment",
      "primitives": [
        {
          "attributes": {
            "POSITION": 0,
            "NORMAL": 1
          },
          "indices": 2,
          "material": 1
        }
      ]
    },
    {
      "name": "AccentSegment",
      "primitives": [
        {
          "attributes": {
            "POSITION": 0,
            "NORMAL": 1
          },
          "indices": 2,
          "material": 2
        }
      ]
    }
  ],
  "accessors": [
    {
      "bufferView": 0,
      "componentType": 5126,
      "count": 24,
      "type": "VEC3",
      "max": [
        0.5,
        0.5,
        0.5
      ],
      "min": [
        -0.5,
        -0.5,
        -0.5
      ]
    },
    {
      "bufferView": 1,
      "componentType": 5126,
      "count": 24,
      "type": "VEC3",
      "max": [
        1.0,
        1.0,
        1.0
      ],
      "min": [
        -1.0,
        -1.0,
        -1.0
      ]
    },
    {
      "bufferView": 2,
      "componentType": 5123,
      "count": 36,
      "type": "SCALAR",
      "max": [
        23
      ],
      "min": [
        0
      ]
    }
  ],
  "bufferViews": [
    {
      "buffer": 0,
      "byteOffset": 0,
      "byteLength": 288,
      "target": 34962
    },
    {
      "buffer": 0,
      "byteOffset": 288,
      "byteLength": 288,
      "target": 34962
    },
    {
      "buffer": 0,
      "byteOffset": 576,
      "byteLength": 72,
      "target": 34963
    }
  ],
  "buffers": [
    {
      "byteLength": 648,
      "uri": "data:application/octet-stream;base64,"
    }
  ]
}
